<svg width="312" height="564" viewBox="0 0 312 564" fill="none" xmlns="http://www.w3.org/2000/svg">
<path d="M1.99963 1.01184H0.999634V2.01184V103.61V104.61H1.99963H154.972H155.972V103.61V2.01184V1.01184H154.972H1.99963Z" fill="#EB066D" stroke="black" stroke-width="2"/>
<path d="M138.975 1.01184H137.975V2.01184V162.96V163.96H138.975H309.944H310.944V162.96V2.01184V1.01184H309.944H138.975Z" fill="#EE73F9" stroke="black" stroke-width="2"/>
<path d="M2 92H1V93V562V563H2H310H311V562V93V92H310H2Z" fill="#F841B3" stroke="black" stroke-width="2"/>
<path d="M164.994 563L165.994 563L165.994 562L166 381.006L166 380.006L165 380.006L2.00632 380L1.00632 380L1.00628 381L1 561.994L0.999965 562.994L1.99996 562.994L164.994 563Z" fill="#F65AD6" stroke="black" stroke-width="2"/>
</svg>
